<svg width="100" height="100" viewBox="0 0 100 100" fill="none" xmlns="http://www.w3.org/2000/svg">
<path d="M92.8984 61.9297L84.1172 26.8008C83.8217 25.6167 83.1386 24.5654 82.1766 23.8144C81.2146 23.0633 80.029 22.6557 78.8086 22.6562H52.3438V15.625C52.3438 14.1746 51.7676 12.7836 50.742 11.758C49.7164 10.7324 48.3254 10.1562 46.875 10.1562H31.25C29.7996 10.1562 28.4086 10.7324 27.383 11.758C26.3574 12.7836 25.7812 14.1746 25.7812 15.625V22.6562H21.1914C19.9715 22.6555 18.7863 23.0626 17.8244 23.8128C16.8625 24.5631 16.1791 25.6135 15.8828 26.7969L7.10156 61.9297C7.05482 62.1162 7.03121 62.3077 7.03125 62.5V75C7.03125 76.4504 7.60742 77.8414 8.63301 78.867C9.6586 79.8926 11.0496 80.4688 12.5 80.4688H87.5C88.9504 80.4688 90.3414 79.8926 91.367 78.867C92.3926 77.8414 92.9688 76.4504 92.9688 75V62.5C92.9688 62.3077 92.9452 62.1162 92.8984 61.9297ZM30.4688 15.625C30.4688 15.4178 30.5511 15.2191 30.6976 15.0726C30.8441 14.9261 31.0428 14.8438 31.25 14.8438H46.875C47.0822 14.8438 47.2809 14.9261 47.4274 15.0726C47.5739 15.2191 47.6562 15.4178 47.6562 15.625V22.6562H30.4688V15.625ZM20.4336 27.9336C20.4762 27.7649 20.5739 27.6153 20.7112 27.5085C20.8484 27.4016 21.0175 27.3437 21.1914 27.3438H78.8086C78.9825 27.3437 79.1516 27.4016 79.2888 27.5085C79.4261 27.6153 79.5238 27.7649 79.5664 27.9336L87.625 60.1562H12.375L20.4336 27.9336ZM87.5 75.7812H12.5C12.2928 75.7812 12.0941 75.6989 11.9476 75.5524C11.8011 75.4059 11.7188 75.2072 11.7188 75V64.8438H88.2812V75C88.2812 75.2072 88.1989 75.4059 88.0524 75.5524C87.9059 75.6989 87.7072 75.7812 87.5 75.7812ZM25.7812 37.5C25.7812 36.8784 26.0282 36.2823 26.4677 35.8427C26.9073 35.4032 27.5034 35.1562 28.125 35.1562H34.375C34.9966 35.1562 35.5927 35.4032 36.0323 35.8427C36.4718 36.2823 36.7188 36.8784 36.7188 37.5C36.7188 38.1216 36.4718 38.7177 36.0323 39.1573C35.5927 39.5968 34.9966 39.8438 34.375 39.8438H28.125C27.5034 39.8438 26.9073 39.5968 26.4677 39.1573C26.0282 38.7177 25.7812 38.1216 25.7812 37.5ZM44.5312 37.5C44.5312 36.8784 44.7782 36.2823 45.2177 35.8427C45.6573 35.4032 46.2534 35.1562 46.875 35.1562H53.125C53.7466 35.1562 54.3427 35.4032 54.7823 35.8427C55.2218 36.2823 55.4688 36.8784 55.4688 37.5C55.4688 38.1216 55.2218 38.7177 54.7823 39.1573C54.3427 39.5968 53.7466 39.8438 53.125 39.8438H46.875C46.2534 39.8438 45.6573 39.5968 45.2177 39.1573C44.7782 38.7177 44.5312 38.1216 44.5312 37.5ZM63.2812 37.5C63.2812 36.8784 63.5282 36.2823 63.9677 35.8427C64.4073 35.4032 65.0034 35.1562 65.625 35.1562H71.875C72.4966 35.1562 73.0927 35.4032 73.5323 35.8427C73.9718 36.2823 74.2188 36.8784 74.2188 37.5C74.2188 38.1216 73.9718 38.7177 73.5323 39.1573C73.0927 39.5968 72.4966 39.8438 71.875 39.8438H65.625C65.0034 39.8438 64.4073 39.5968 63.9677 39.1573C63.5282 38.7177 63.2812 38.1216 63.2812 37.5ZM25.7812 50C25.7812 49.3784 26.0282 48.7823 26.4677 48.3427C26.9073 47.9032 27.5034 47.6562 28.125 47.6562H34.375C34.9966 47.6562 35.5927 47.9032 36.0323 48.3427C36.4718 48.7823 36.7188 49.3784 36.7188 50C36.7188 50.6216 36.4718 51.2177 36.0323 51.6573C35.5927 52.0968 34.9966 52.3438 34.375 52.3438H28.125C27.5034 52.3438 26.9073 52.0968 26.4677 51.6573C26.0282 51.2177 25.7812 50.6216 25.7812 50ZM44.5312 50C44.5312 49.3784 44.7782 48.7823 45.2177 48.3427C45.6573 47.9032 46.2534 47.6562 46.875 47.6562H53.125C53.7466 47.6562 54.3427 47.9032 54.7823 48.3427C55.2218 48.7823 55.4688 49.3784 55.4688 50C55.4688 50.6216 55.2218 51.2177 54.7823 51.6573C54.3427 52.0968 53.7466 52.3438 53.125 52.3438H46.875C46.2534 52.3438 45.6573 52.0968 45.2177 51.6573C44.7782 51.2177 44.5312 50.6216 44.5312 50ZM63.2812 50C63.2812 49.3784 63.5282 48.7823 63.9677 48.3427C64.4073 47.9032 65.0034 47.6562 65.625 47.6562H71.875C72.4966 47.6562 73.0927 47.9032 73.5323 48.3427C73.9718 48.7823 74.2188 49.3784 74.2188 50C74.2188 50.6216 73.9718 51.2177 73.5323 51.6573C73.0927 52.0968 72.4966 52.3438 71.875 52.3438H65.625C65.0034 52.3438 64.4073 52.0968 63.9677 51.6573C63.5282 51.2177 63.2812 50.6216 63.2812 50Z" fill="black"/>
</svg>
