<?xml version="1.0" standalone="no"?>
<!DOCTYPE svg PUBLIC "-//W3C//DTD SVG 20010904//EN"
 "http://www.w3.org/TR/2001/REC-SVG-20010904/DTD/svg10.dtd">
<svg version="1.0" xmlns="http://www.w3.org/2000/svg"
 width="100.000000pt" height="100.000000pt" viewBox="0 0 100.000000 100.000000"
 preserveAspectRatio="xMidYMid meet">

<g transform="translate(0.000000,100.000000) scale(0.100000,-0.100000)"
fill="#000000" stroke="none">
<path d="M674 875 c-5 -11 -11 -12 -25 -4 -53 28 -82 -51 -33 -90 19 -15 24
-24 17 -33 -6 -7 -13 -37 -15 -66 -7 -74 -29 -94 -108 -100 -81 -6 -171 19
-256 70 -68 41 -94 43 -94 8 0 -12 -4 -18 -11 -15 -5 4 -22 4 -36 0 -22 -5
-25 -10 -20 -38 2 -19 -1 -37 -9 -45 -8 -7 -14 -17 -14 -22 0 -21 55 -71 91
-81 30 -10 39 -17 39 -35 0 -49 90 -95 227 -114 198 -27 349 85 231 173 -33
24 -133 37 -126 16 3 -8 24 -17 48 -21 86 -15 114 -58 64 -97 -44 -34 -91 -44
-188 -38 -96 5 -165 25 -206 57 -24 20 -25 21 -6 35 24 18 15 28 -43 44 -76
22 -129 71 -62 58 42 -9 45 3 9 40 -30 31 -31 33 -9 33 12 0 31 -5 41 -10 24
-13 37 5 19 26 -23 28 -1 25 47 -6 76 -48 171 -73 259 -68 68 3 78 6 106 35
26 25 33 42 37 85 2 29 9 59 14 65 20 25 74 26 124 3 l49 -21 -27 -15 c-32
-17 -33 -20 -13 -94 47 -175 -15 -319 -157 -366 -44 -14 -48 -18 -48 -47 l-1
-32 -15 28 c-19 36 -80 40 -93 5 -8 -22 -8 -22 -14 3 -5 20 -17 28 -56 38 -27
7 -70 26 -96 42 -49 31 -69 36 -63 17 7 -21 80 -66 136 -83 49 -16 52 -19 52
-50 0 -19 5 -46 10 -60 14 -37 34 -20 49 41 15 58 37 56 60 -6 25 -68 47 -65
55 8 7 58 7 59 47 72 52 17 124 81 151 134 34 67 36 212 3 298 -5 13 2 22 29
35 20 9 36 21 36 25 0 5 -22 23 -50 40 -47 29 -49 32 -35 52 8 11 15 26 15 33
0 20 -31 44 -50 38 -10 -3 -21 -1 -25 5 -9 15 -55 12 -61 -5z m52 -30 c4 -10
14 -13 30 -9 36 9 20 -22 -18 -35 -64 -23 -129 -3 -115 34 7 16 9 16 32 1 23
-15 25 -15 35 4 13 24 28 26 36 5z"/>
</g>
</svg>
