<?xml version="1.0" standalone="no"?>
<!DOCTYPE svg PUBLIC "-//W3C//DTD SVG 20010904//EN"
 "http://www.w3.org/TR/2001/REC-SVG-20010904/DTD/svg10.dtd">
<svg version="1.0" xmlns="http://www.w3.org/2000/svg"
 width="100.000000pt" height="100.000000pt" viewBox="0 0 100.000000 100.000000"
 preserveAspectRatio="xMidYMid meet">

<g transform="translate(0.000000,100.000000) scale(0.100000,-0.100000)"
fill="#000000" stroke="none">
<path d="M211 942 c-5 -10 -13 -41 -16 -68 -9 -63 10 -111 58 -150 30 -23 34
-31 26 -47 -10 -18 -11 -18 -31 0 -15 13 -40 19 -99 22 -92 4 -102 -6 -72 -66
24 -48 59 -73 119 -84 38 -7 56 -17 82 -45 28 -33 32 -45 32 -93 1 -31 7 -92
15 -136 19 -109 29 -117 153 -113 90 3 96 4 115 30 40 54 -5 136 -52 94 -22
-20 -65 -21 -81 -1 -19 23 -49 18 -62 -10 -16 -35 5 -58 22 -25 11 21 12 21
31 4 25 -22 73 -22 98 0 18 17 19 17 26 -3 3 -11 1 -29 -5 -41 -9 -18 -20 -20
-95 -20 -102 0 -108 6 -124 123 -17 121 -16 127 19 127 52 0 69 67 25 96 -21
14 -31 15 -50 6 -14 -7 -25 -16 -25 -21 0 -5 -14 4 -31 20 -17 15 -47 31 -67
34 -58 10 -90 25 -107 51 -24 38 -19 44 39 44 43 0 60 -5 84 -25 17 -14 32
-25 36 -25 11 0 60 94 51 97 -70 23 -111 88 -99 156 l6 41 14 -39 c7 -21 24
-50 39 -64 24 -24 31 -26 103 -23 135 5 146 5 208 -3 81 -10 114 7 147 77 l25
51 6 -40 c12 -68 -29 -133 -99 -156 -9 -3 40 -97 51 -97 4 0 19 11 36 25 24
20 41 25 84 25 58 0 63 -6 39 -44 -17 -26 -49 -41 -107 -51 -20 -3 -50 -19
-67 -34 -17 -16 -31 -25 -31 -20 0 5 -11 14 -25 21 -19 9 -29 8 -50 -6 -45
-29 -27 -96 27 -96 l31 0 -7 -82 c-11 -134 -45 -251 -77 -268 -20 -11 -128
-13 -154 -4 -8 4 -22 19 -31 35 -8 16 -19 29 -24 29 -21 0 -9 -43 19 -71 28
-27 35 -29 108 -29 83 0 112 11 135 53 23 44 48 165 54 265 7 96 9 104 38 137
24 27 43 37 80 44 60 11 95 36 119 84 30 60 20 70 -72 66 -59 -3 -84 -9 -99
-22 -20 -18 -21 -18 -31 0 -8 16 -4 24 26 47 48 39 67 86 58 152 -12 100 -55
112 -82 22 -23 -80 -70 -102 -170 -76 -35 8 -60 8 -110 -2 -86 -17 -129 -8
-153 33 -11 18 -20 43 -20 58 0 45 -40 66 -59 31z m179 -448 c0 -20 -30 -30
-40 -13 -11 17 7 40 26 32 8 -3 14 -12 14 -19z m263 -10 c-3 -8 -12 -14 -19
-14 -20 0 -30 30 -13 40 17 11 40 -7 32 -26z"/>
</g>
</svg>
