<?xml version="1.0" standalone="no"?>
<!DOCTYPE svg PUBLIC "-//W3C//DTD SVG 20010904//EN"
 "http://www.w3.org/TR/2001/REC-SVG-20010904/DTD/svg10.dtd">
<svg version="1.0" xmlns="http://www.w3.org/2000/svg"
 width="100.000000pt" height="100.000000pt" viewBox="0 0 100.000000 100.000000"
 preserveAspectRatio="xMidYMid meet">

<g transform="translate(0.000000,100.000000) scale(0.100000,-0.100000)"
fill="#000000" stroke="none">
<path d="M345 821 c-61 -10 -134 -30 -158 -43 -17 -8 -15 -12 14 -45 57 -65
77 -155 45 -199 -14 -18 -16 -18 -51 16 -22 21 -41 52 -48 78 -6 23 -17 42
-23 42 -7 0 -27 -30 -45 -66 -52 -104 -43 -201 24 -286 23 -29 32 -21 51 37
22 70 59 116 78 97 17 -16 23 -157 9 -194 l-10 -28 -35 21 c-41 24 -76 13 -76
-25 0 -36 33 -60 75 -53 23 4 37 1 42 -7 29 -48 119 -69 210 -50 66 14 230 93
260 126 26 29 5 35 -35 10 -20 -13 -75 -42 -122 -65 -125 -62 -239 -64 -288
-4 -10 11 -9 22 3 50 20 47 20 176 0 223 -14 33 -13 37 6 64 32 43 24 135 -19
195 l-31 44 33 11 c58 19 184 28 257 19 124 -15 208 -70 277 -179 47 -75 79
-108 118 -120 l33 -11 -21 -34 c-24 -41 -114 -125 -134 -125 -8 0 -14 10 -14
21 0 29 -34 83 -65 103 -21 14 -23 19 -14 45 6 16 19 37 29 46 19 17 20 17 29
-8 12 -30 43 -50 65 -41 23 9 19 23 -8 30 -14 3 -27 15 -30 29 -14 55 -77 38
-107 -28 -25 -57 -24 -73 10 -93 34 -20 56 -56 65 -107 8 -44 24 -47 76 -16
53 32 79 58 121 123 46 70 48 86 14 86 -49 0 -84 29 -140 115 -62 96 -119 144
-210 175 -69 23 -187 32 -260 21z m-167 -304 l26 -27 -23 -22 c-13 -11 -32
-41 -43 -65 -10 -23 -21 -43 -24 -43 -3 0 -12 17 -20 37 -20 48 -20 119 2 172
l17 42 19 -33 c11 -18 32 -45 46 -61z m13 -303 c11 -14 10 -15 -11 -12 -13 1
-25 9 -28 16 -5 17 23 15 39 -4z"/>
</g>
</svg>
