<svg width="197" height="54" viewBox="0 0 197 54" fill="none" xmlns="http://www.w3.org/2000/svg">
<path d="M57.7217 42.7059C59.131 43.4553 61.3789 43.9662 63.703 43.9662C68.9986 43.9662 72.0461 41.5813 72.0461 37.9695C72.0461 35.346 70.3699 33.5059 66.7888 32.1772C64.3506 31.2574 63.5508 30.7122 63.5508 29.6559C63.5508 28.6338 64.4645 27.8499 66.1793 27.8499C67.7795 27.8499 69.2651 28.3952 70.1796 28.838L71.2459 25.2946C70.027 24.7153 68.1601 24.2381 65.9889 24.2381C61.2648 24.2381 58.2168 26.8277 58.2168 30.2352C58.2168 32.3135 59.6645 34.3238 63.6266 35.7549C65.9507 36.6408 66.6743 37.2541 66.6743 38.4126C66.6743 39.5711 65.722 40.3205 63.7412 40.3205C61.9884 40.3205 59.8929 39.6393 58.788 39.0602L57.7217 42.7059ZM84.7328 24.2381C78.98 24.2381 74.6749 27.8499 74.6749 34.2216C74.6749 40.3889 78.7896 44.0005 84.5044 44.0005C89.2281 44.0005 94.4095 41.2064 94.4095 33.9829C94.4095 28.2247 90.6757 24.2381 84.7328 24.2381ZM88.6949 34.0851C88.6949 37.4582 87.2473 40.2865 84.5801 40.2865C81.837 40.2865 80.3891 37.4927 80.3891 34.1192C80.3891 31.223 81.4945 27.9521 84.6186 27.9521C87.5138 27.9521 88.6949 31.1211 88.6949 34.0851ZM96.3905 24.647V28.361H99.2095V43.6257H104.848V28.361H109.039V24.647H104.81C104.81 22.7389 104.81 19.8767 107.972 19.8767C108.848 19.8767 109.496 20.013 110.029 20.1834L110.448 16.2994C109.61 16.0607 108.505 15.8561 107.096 15.8561C102.943 15.8561 99.2095 18.139 99.2095 23.8635V24.647H96.3905ZM110.105 24.647V28.361H112.886V37.1177C112.886 39.2304 113.001 43.9662 119.096 43.9662C120.735 43.9662 122.106 43.796 122.868 43.5233L122.792 39.6733C122.22 39.7752 121.763 39.8437 120.963 39.8437C119.249 39.8437 118.449 38.8893 118.449 36.6069V28.361H123.135V24.647H118.449V19.7065L112.886 21.1715V24.647H110.105Z" fill="black"/>
<path fill-rule="evenodd" clip-rule="evenodd" d="M5.29342 13.0963H33.6634C35.8303 13.0963 37.6034 14.8693 37.6034 17.0363V45.4062C37.6034 47.5734 35.8303 49.3462 33.6634 49.3462H5.29342C3.12628 49.3462 1.35352 47.5734 1.35352 45.4062V17.0363C1.35352 14.8693 3.12628 13.0963 5.29342 13.0963Z" fill="#94C9ED" stroke="#3F2B2B" stroke-width="1.3228" stroke-miterlimit="22.9256"/>
<path fill-rule="evenodd" clip-rule="evenodd" d="M26.592 21.93C24.7659 20.5271 24.6504 19.912 19.9247 18.1861C19.1521 18.4801 18.7519 18.3902 18.474 18.9024C18.1642 19.4726 19.1046 19.8213 18.9976 20.576C18.0938 26.9499 6.13577 32.371 5.52832 33.4537C10.9715 35.4088 18.9173 33.0799 24.1868 34.5435C23.6962 29.4125 22.3942 26.3887 25.8436 24.1684C26.2952 23.8777 27.0964 24.0388 27.1411 23.2807C27.1736 22.7309 26.7796 22.4517 26.592 21.93Z" fill="white"/>
<path fill-rule="evenodd" clip-rule="evenodd" d="M22.987 22.0312C23.5621 20.9856 24.1017 20.6288 24.5531 20.3321L26.3168 18.7914C28.5891 17.3875 30.7309 17.7288 33.5255 18.2714C38.3206 19.2032 44.0818 21.5658 46.1212 19.8913C46.8391 18.6698 47.2676 17.9637 47.1021 16.7365C46.8756 15.0548 45.7405 12.8854 44.6074 11.5762C43.7367 10.57 42.9908 9.55749 41.9603 8.75819C41.0942 8.08677 40.404 7.45895 40.012 6.43981C39.8311 5.96892 39.7685 5.66979 39.89 4.97194L41.5504 3.85201C42.6261 3.36409 43.7425 3.14525 45.3732 2.8692C43.3912 1.91689 41.846 1.34292 38.7727 0.787048C36.1257 0.628115 34.7033 0.24706 33.2944 0.339955C31.6398 0.449377 30.6592 1.44714 31.786 3.90629C32.1261 4.64945 32.8065 5.62378 33.5309 6.67468C35.1088 8.96443 38.8913 11.8436 38.2199 14.2171C35.4131 15.1586 32.4913 14.8226 28.8751 15.1868C26.7317 14.9841 25.5857 15.8775 24.8501 16.7755C24.5432 17.1505 22.9085 18.9814 22.8005 19.3994C22.5482 20.1985 22.6506 21.1378 22.987 22.0312Z" fill="#C2CC2B"/>
<path fill-rule="evenodd" clip-rule="evenodd" d="M23.618 33.5638C17.13 33.5616 13.6024 33.599 5.52822 33.4536C3.82548 35.2966 4.2247 35.7593 4.4184 37.7586C6.40723 41.2873 8.29818 41.513 12.5346 43.3898C17.4117 45.5501 25.0193 49.646 24.2192 39.3612C24.0556 37.2635 23.955 35.6058 23.618 33.5638Z" fill="#C2CC2B"/>
<path fill-rule="evenodd" clip-rule="evenodd" d="M22.6404 18.622C20.9662 18.023 18.965 17.6266 18.3816 18.208C17.8952 18.6924 18.1324 19.4889 18.794 20.2015C18.8497 20.9713 18.15 21.7847 17.6555 22.7675C16.9509 24.0994 16.0309 25.225 15.1105 25.9054C8.3218 30.9238 -4.44518 36.0326 10.222 43.0792C15.0263 45.3875 24.3238 50.8815 24.9227 41.5378C25.1192 38.4706 24.1468 34.2214 24.0188 31.0664C23.8397 26.6735 24.8211 25.6218 25.8298 24.5261C26.7823 24.6638 27.2763 24.1578 27.4538 23.1568C27.5172 22.2846 26.5608 21.5367 25.4756 20.2203C26.2809 19.6063 27.2094 18.4418 28.7165 18.3116C30.9163 18.0664 35.2456 19.1766 37.6826 19.8559C42.3003 20.8788 44.8812 21.6819 46.7069 20.129C47.9746 19.3103 47.8654 16.3532 46.2701 12.8578C45.0399 10.0714 40.6593 7.22952 40.3104 5.70188C40.1763 5.10191 40.631 4.74045 40.8368 4.5335C41.4308 3.93659 43.2637 3.35885 44.2071 3.07589C42.8921 3.08501 40.5574 3.61103 39.7032 4.88891C39.3116 5.48966 39.4612 6.04781 40.4928 7.38218C42.7942 10.3595 45.7739 11.0744 46.7733 16.8948C46.9977 18.2027 46.7356 19.0522 46.0952 19.5666C43.7772 21.4699 36.5392 18.2569 31.2214 17.7655C28.5058 17.5147 27.1819 17.8013 26.2036 18.7292L24.5421 20.3222C26.6906 22.2739 27.1038 23.0292 26.6789 23.576C26.5245 23.7297 26.1745 23.8724 25.704 23.7198C25.161 23.5946 24.791 23.0074 24.4492 23.3589C24.1153 23.9298 25.118 24.0296 24.9183 24.3009C24.5319 24.8258 23.9868 25.3787 23.4807 26.8102C22.824 29.6841 23.0635 31.4169 23.2789 33.1387C23.6162 35.1808 23.8042 37.164 23.9677 39.2616C24.768 49.5463 17.3347 45.3006 12.4578 43.1403C8.22143 41.2636 5.58133 39.9639 4.54175 37.534C3.89498 35.2013 5.63661 33.949 7.59866 32.277C10.2434 30.3388 12.6771 28.6309 15.1379 27.0963C16.6411 25.9431 17.3634 25.1457 18.1556 23.679C18.7259 22.6961 19.3339 21.0944 19.7463 20.9868C20.2547 21.0037 20.8593 21.9127 21.2261 21.6071C21.7373 20.8192 18.7623 19.7025 18.8792 18.72C19.1054 18.3235 20.5732 18.6272 22.8006 19.3994C25.6463 16.5737 26.4249 15.3742 29.3233 15.1989C33.1998 15.0561 38.1274 14.8603 38.3662 14.2719C39.3623 12.4976 35.1202 8.77696 33.5423 6.48721C31.5938 3.6609 31.1486 2.31179 31.5218 1.53351C31.7158 1.32393 31.7222 0.549923 33.6857 0.539237C34.6944 0.507108 36.051 0.580412 37.4704 0.787787C39.6583 1.10686 39.9944 1.21408 41.7746 1.46505C40.7706 1.01696 39.4094 0.779094 37.6154 0.361495C34.925 -0.158046 32.2988 -0.15441 31.4168 0.612899C29.7231 2.10036 31.181 4.91149 34.3008 8.7117C36.0522 10.8456 38.2634 13.1362 37.6838 13.7118C37.2511 14.2878 34.3311 14.2719 32.8777 14.4132C27.6939 14.7575 26.83 13.8742 22.6404 18.622Z" fill="black"/>
<path d="M43.2602 46.2944C43.8996 46.2944 44.5132 46.4551 45.1007 46.7764C45.6882 47.0945 46.1492 47.5522 46.4835 48.1495C46.8211 48.7468 46.9899 49.3717 46.9899 50.0241C46.9899 50.6734 46.8244 51.2934 46.4933 51.8842C46.1654 52.4717 45.7061 52.931 45.1153 53.2621C44.5278 53.59 43.9094 53.7539 43.2602 53.7539C42.6109 53.7539 41.9909 53.59 41.4001 53.2621C40.8126 52.931 40.3533 52.4717 40.0222 51.8842C39.6943 51.2934 39.5304 50.6734 39.5304 50.0241C39.5304 49.3717 39.6976 48.7468 40.0319 48.1495C40.3695 47.5522 40.8321 47.0945 41.4196 46.7764C42.0072 46.4551 42.6207 46.2944 43.2602 46.2944ZM43.265 47.0247C42.7521 47.0247 42.2604 47.153 41.7897 47.4094C41.319 47.6659 40.9473 48.0343 40.6746 48.5147C40.4052 48.9951 40.2705 49.4983 40.2705 50.0241C40.2705 50.5468 40.402 51.045 40.6649 51.519C40.9311 51.9929 41.3011 52.363 41.7751 52.6291C42.249 52.8953 42.7457 53.0284 43.265 53.0284C43.7876 53.0284 44.2843 52.8953 44.755 52.6291C45.2289 52.363 45.599 51.9929 45.8651 51.519C46.1313 51.045 46.2644 50.5468 46.2644 50.0241C46.2644 49.4983 46.1281 48.9951 45.8554 48.5147C45.586 48.0343 45.2143 47.6659 44.7404 47.4094C44.2697 47.153 43.7779 47.0247 43.265 47.0247ZM41.5754 52.0205V48.0619H42.3788C43.1319 48.0619 43.5539 48.0651 43.6448 48.0716C43.911 48.0943 44.1171 48.1479 44.2632 48.2323C44.4125 48.3134 44.5359 48.44 44.6333 48.6121C44.7339 48.7809 44.7842 48.9692 44.7842 49.1769C44.7842 49.4626 44.6901 49.7076 44.5018 49.9122C44.3168 50.1134 44.0555 50.2384 43.7179 50.2871C43.838 50.3325 43.9305 50.3828 43.9954 50.438C44.0603 50.49 44.1496 50.5906 44.2632 50.7399C44.2924 50.7789 44.3898 50.9395 44.5553 51.2219L45.0228 52.0205H44.0295L43.6984 51.3778C43.4744 50.946 43.2894 50.675 43.1433 50.5646C42.9972 50.451 42.8122 50.3942 42.5882 50.3942H42.3788V52.0205H41.5754ZM42.3788 49.7709H42.7051C43.1693 49.7709 43.4565 49.7531 43.5669 49.7174C43.6805 49.6817 43.7698 49.62 43.8347 49.5324C43.8996 49.4415 43.9321 49.3392 43.9321 49.2256C43.9321 49.1152 43.8996 49.0179 43.8347 48.9335C43.773 48.8458 43.6838 48.7841 43.5669 48.7484C43.4501 48.7095 43.1628 48.69 42.7051 48.69H42.3788V49.7709Z" fill="black"/>
<path fill-rule="evenodd" clip-rule="evenodd" d="M128.492 37.2068C130.368 37.2068 131.889 38.7278 131.889 40.6038C131.889 42.4795 130.368 44.0005 128.492 44.0005C126.616 44.0005 125.095 42.4795 125.095 40.6038C125.095 38.7278 126.616 37.2068 128.492 37.2068Z" fill="black"/>
<path d="M141.802 39.298V17.03H136.163V43.6203H152.279V39.298H141.802ZM156.926 28.9248C158.298 28.1639 160.203 27.6108 162.145 27.6108C165.232 27.6108 165.956 29.0632 165.956 30.965C159.212 30.965 154.374 33.2816 154.374 38.2264C154.374 41.3382 156.812 44.0005 160.736 44.0005C163.098 44.0005 165.156 43.1362 166.375 41.6149H166.489L166.832 43.6203H171.899C171.67 42.4448 171.594 40.7506 171.594 39.0559V32.0023C171.594 27.7837 169.803 23.9802 163.212 23.9802C159.898 23.9802 157.269 24.8445 155.86 25.6054L156.926 28.9248ZM166.108 37.0162C166.108 39.4709 163.898 40.3356 162.565 40.3356C161.155 40.3356 159.898 39.5404 159.898 37.7076C159.898 34.9068 163.06 34.2499 166.108 34.2499V37.0162ZM182.261 15.8198H176.622V38.0878C176.622 40.0587 176.547 42.2372 176.47 43.6203H181.271L181.537 40.958H181.652C182.985 43.1362 185.004 44.0005 187.366 44.0005C191.747 44.0005 196.052 40.612 196.052 33.6275C196.052 27.8877 192.928 23.9459 188.242 23.9459C185.538 23.9459 183.556 24.9831 182.337 26.6775H182.261V15.8198ZM182.261 32.1752C182.261 29.6853 184.128 28.0258 186.071 28.0258C188.967 28.0258 190.376 30.5845 190.376 33.8696C190.376 37.6036 188.814 39.9206 186.071 39.9206C183.823 39.9206 182.261 38.1226 182.261 35.9441V32.1752Z" fill="#9C9C9C"/>
</svg>
