<?xml version="1.0" standalone="no"?>
<!DOCTYPE svg PUBLIC "-//W3C//DTD SVG 20010904//EN"
 "http://www.w3.org/TR/2001/REC-SVG-20010904/DTD/svg10.dtd">
<svg version="1.0" xmlns="http://www.w3.org/2000/svg"
 width="100.000000pt" height="100.000000pt" viewBox="0 0 100.000000 100.000000"
 preserveAspectRatio="xMidYMid meet">

<g transform="translate(0.000000,100.000000) scale(0.100000,-0.100000)"
fill="#000000" stroke="none">
<path d="M865 834 c-11 -7 -56 -20 -100 -29 -47 -9 -87 -22 -98 -33 -17 -18
-23 -18 -75 -6 -154 36 -322 0 -414 -90 l-37 -36 -25 25 c-28 28 -38 30 -67
15 -37 -20 -16 -100 27 -100 8 0 14 -4 14 -10 0 -10 -20 -14 -53 -12 -13 2
-17 -4 -15 -15 8 -40 118 0 118 43 0 24 110 113 168 135 69 27 228 33 304 10
45 -13 49 -12 65 8 13 15 41 26 96 36 44 8 83 18 88 21 15 9 10 -26 -8 -57
-10 -16 -20 -29 -23 -29 -3 0 -16 -9 -29 -19 l-25 -19 27 -40 c14 -22 35 -43
47 -47 19 -6 19 -8 5 -28 -19 -27 -19 -81 0 -97 35 -29 94 41 81 96 -5 17 -2
24 9 24 22 0 19 -68 -5 -107 -13 -22 -31 -35 -59 -43 -46 -12 -96 -64 -105
-109 -3 -17 -8 -43 -11 -59 -4 -20 -12 -27 -29 -28 -25 -2 -36 24 -36 87 0 18
-5 29 -14 29 -14 0 -31 -34 -41 -85 -4 -23 -11 -30 -30 -31 -20 -2 -25 4 -30
36 l-6 38 -72 1 c-40 1 -85 2 -102 4 -29 2 -30 1 -27 -38 3 -38 1 -40 -26 -41
-25 -1 -30 4 -46 48 -16 47 -32 61 -41 36 -2 -7 -9 -31 -14 -53 -9 -34 -14
-40 -36 -40 l-26 0 5 70 c7 84 8 120 4 202 -3 52 0 65 20 85 25 28 29 48 8 48
-22 0 -57 -56 -63 -100 -3 -21 0 -61 7 -88 8 -33 8 -57 2 -69 -5 -10 -11 -56
-13 -103 l-4 -85 25 3 c35 3 43 3 64 0 15 -2 22 6 29 32 l9 35 13 -31 c12 -29
15 -31 66 -30 l54 1 -3 47 -4 46 47 -9 c26 -5 57 -6 70 -3 24 6 35 -14 35 -68
0 -21 5 -28 19 -28 11 0 23 5 26 11 4 6 19 7 36 4 27 -6 29 -5 30 27 l1 33 10
-31 c10 -30 13 -32 57 -31 l47 1 11 67 c13 83 41 125 91 139 48 12 87 54 101
107 19 70 -18 124 -71 104 -28 -10 -56 -1 -83 29 l-20 22 28 20 c37 27 57 68
57 117 0 46 -7 54 -35 35z m-771 -190 c21 -21 20 -34 -3 -34 -23 0 -35 15 -27
35 7 19 11 19 30 -1z m807 -126 c-5 -15 -15 -29 -20 -33 -14 -8 -14 30 0 57
16 29 33 9 20 -24z"/>
</g>
</svg>
