<?xml version="1.0" standalone="no"?>
<!DOCTYPE svg PUBLIC "-//W3C//DTD SVG 20010904//EN"
 "http://www.w3.org/TR/2001/REC-SVG-20010904/DTD/svg10.dtd">
<svg version="1.0" xmlns="http://www.w3.org/2000/svg"
 width="100.000000pt" height="100.000000pt" viewBox="0 0 100.000000 100.000000"
 preserveAspectRatio="xMidYMid meet">

<g transform="translate(0.000000,100.000000) scale(0.100000,-0.100000)"
fill="#000000" stroke="none">
<path d="M540 873 c-14 -11 -44 -18 -69 -18 -56 -1 -91 -37 -91 -95 0 -33 6
-44 40 -73 l40 -34 -40 -55 c-47 -67 -105 -111 -220 -168 -144 -72 -180 -110
-180 -190 0 -53 11 -73 74 -138 71 -74 98 -86 178 -83 42 2 93 54 161 165 61
99 123 172 182 214 49 34 23 45 -66 28 -41 -8 -82 -18 -92 -22 -15 -5 -12 6
17 64 34 68 45 112 28 112 -4 0 -30 -43 -56 -95 l-48 -95 -82 -38 c-138 -65
-191 -138 -130 -178 17 -12 26 -11 64 9 39 19 72 54 145 150 15 19 40 32 93
46 l73 20 -50 -55 c-27 -30 -73 -93 -101 -139 -28 -47 -66 -101 -84 -120 -29
-31 -39 -35 -81 -35 -47 0 -51 3 -122 73 -67 68 -73 77 -73 115 0 60 39 99
171 167 124 65 196 125 247 204 33 51 34 56 17 65 -69 41 -89 80 -65 126 12
22 55 34 78 21 12 -7 24 -3 46 15 42 36 86 30 106 -14 11 -26 19 -32 35 -28
31 8 53 -14 57 -54 3 -35 3 -35 46 -32 66 6 100 -35 72 -88 -8 -14 -5 -21 14
-34 31 -20 40 -49 26 -77 -10 -17 -18 -20 -46 -16 -30 5 -36 3 -44 -17 -12
-31 -38 -56 -59 -56 -33 0 -70 49 -77 101 -6 42 -10 49 -29 49 -50 0 -106 80
-90 129 5 18 8 18 45 4 25 -10 40 -22 40 -33 0 -24 38 -70 66 -80 15 -6 24
-18 24 -30 0 -23 28 -70 41 -70 12 0 11 37 -1 45 -5 3 -10 21 -10 40 0 29 -4
34 -30 40 -36 8 -60 39 -60 77 0 22 -5 28 -22 28 -13 0 -38 9 -56 20 -18 11
-35 20 -37 20 -11 0 -35 -61 -35 -88 0 -39 38 -93 82 -117 29 -15 39 -29 47
-61 14 -56 45 -92 86 -100 40 -7 79 13 90 46 5 15 15 20 40 20 24 0 39 7 54
26 26 34 26 50 -1 94 -12 19 -20 47 -19 62 1 15 0 37 -4 48 -8 25 -54 50 -95
50 -25 0 -30 4 -30 23 0 31 -29 57 -63 57 -16 0 -27 6 -27 13 0 8 -10 23 -23
35 -29 27 -83 29 -117 5z m-199 -561 c-17 -33 -110 -112 -131 -112 -47 0 -3
57 80 104 53 31 64 32 51 8z"/>
</g>
</svg>
